<svg xmlns="http://www.w3.org/2000/svg" width="108" height="8" viewBox="0 0 108 8">
    <path fill="#7F6AEE" fill-rule="nonzero" d="M89.998 8c-4.807 0-7.221-1.651-9.557-3.248-2.186-1.494-4.25-2.906-8.445-2.906-4.193 0-6.257 1.412-8.443 2.906C61.218 6.35 58.803 8 53.998 8c-4.807 0-7.222-1.651-9.557-3.248-2.185-1.494-4.25-2.906-8.443-2.906s-6.258 1.412-8.444 2.906C25.22 6.35 22.805 8 18 8s-7.22-1.651-9.556-3.248C6.258 3.258 4.193 1.846 0 1.846V0c4.806 0 7.22 1.651 9.556 3.248 2.185 1.494 4.25 2.906 8.443 2.906s6.258-1.412 8.443-2.906C28.777 1.65 31.192 0 35.998 0c4.806 0 7.22 1.651 9.556 3.248 2.185 1.494 4.25 2.906 8.444 2.906 4.193 0 6.257-1.412 8.443-2.906C64.776 1.65 67.19 0 71.996 0c4.807 0 7.222 1.65 9.558 3.248 2.186 1.494 4.25 2.906 8.444 2.906 4.194 0 6.259-1.412 8.445-2.906C100.778 1.65 103.193 0 108 0v1.846c-4.194 0-6.259 1.412-8.445 2.906C97.22 6.35 94.805 8 89.998 8"/>
</svg>
