<svg xmlns="http://www.w3.org/2000/svg" width="55.001" height="55" viewBox="0 0 55.001 55">
    <path id="prefix__Subtraction_7" d="M9164.713 13133.216a10.685 10.685 0 0 1-7.607-3.154l-16.739-16.74a10.756 10.756 0 0 1 0-15.217l16.739-16.739a10.766 10.766 0 0 1 15.218 0l16.738 16.739a10.758 10.758 0 0 1 0 15.217l-16.738 16.74a10.69 10.69 0 0 1-7.611 3.154zm-12.523-23.163l-1.551 1.552 4.771 3.188 3.181 4.767 1.555-1.551-.835-3.938 5.65-5.647 5.565 10.345 1.99-1.988-2.784-13.13 5.605-5.605a2.227 2.227 0 0 0-.036-3.145 2.313 2.313 0 0 0-1.617-.671 2.154 2.154 0 0 0-1.526.63l-5.607 5.61-13.128-2.785-1.988 1.989 10.343 5.57-5.65 5.646-3.937-.836z" data-name="Subtraction 7" transform="translate(-9137.213 -13078.216)" style="fill:#000733"/>
</svg>
